# xmcd CD database file
#
# Track frame offsets:
#	150
#	10990
#	24557
#	34960
#	47780
#	61287
#	74065
#	88297
#	100832
#	112840
#	128017
#	145872
#	161090
#	174812
#	186127
#	198520
#	211585
#	226317
#	241765
#	252990
#	264580
#	281907
#	296970
#
# Disc length: 4118 seconds
#
# Revision: 0
# Processed by: cddbd v1.5.2PL0 Copyright (c) Steve Scherf et al.
# Submitted via: CDex 1.70beta2
#
DISCID=53101417
DTITLE=Jones Classic Country - Jones Classic Country CCC-613
DYEAR=0000
DGENRE=Country
TTITLE0=Bill Anderson/I Got The Fever
TTITLE1=John Anderson/1959
TTITLE2=Lynn Anderson/What A Man, My Man Is
TTITLE3=Razzy Bailey/Lovin' Up A Storm
TTITLE4=Moe Bandy/Bandy The Rodeo Clown
TTITLE5=Moe Bandy/Barstool Mountain
TTITLE6=Moe Bandy/I Cheated Me Right Out Of You
TTITLE7=Moe Bandy/She's Not Really Cheatin' (She's Just Gettin' Even)
TTITLE8=Moe Bandy and Joe Stampley/Just Good Ol' Boys
TTITLE9=T Graham Brown/Darlene
TTITLE10=Ed Bruce/My First Taste Of Texas
TTITLE11=Ed Bruce/Girls, Women And Ladies
TTITLE12=Ed Bruce/Ever, Never Lovin' You
TTITLE13=Glen Campbell/Try A Little Kindness
TTITLE14=Glen Campbell/Galveston
TTITLE15=Johnny Cash/One On The Right Is On The Left
TTITLE16=Rosanne Cash/Tennessee Flat Top Box
TTITLE17=Roy Clark/Yesterday When I Was Young
TTITLE18=Patsy Cline/Leavin' On Your Mind
TTITLE19=John Conlee/Busted
TTITLE20=John Conlee/I Don't Remember Loving You
TTITLE21=John Conlee/I'm Only In It For The Love
TTITLE22=Earl Thomas Conley/I Have Loved You Girl (But Not Like This Before)
EXTD=YEAR: 0000
EXTT0=
EXTT1=
EXTT2=
EXTT3=
EXTT4=
EXTT5=
EXTT6=
EXTT7=
EXTT8=
EXTT9=
EXTT10=
EXTT11=
EXTT12=
EXTT13=
EXTT14=
EXTT15=
EXTT16=
EXTT17=
EXTT18=
EXTT19=
EXTT20=
EXTT21=
EXTT22=
PLAYORDER=
